<?xml version="1.0" encoding="utf-8"?>
<!-- Generator: Adobe Illustrator 21.0.2, SVG Export Plug-In . SVG Version: 6.00 Build 0)  -->
<svg version="1.1" id="Layer_1" xmlns="http://www.w3.org/2000/svg" xmlns:xlink="http://www.w3.org/1999/xlink" x="0px" y="0px"
	 viewBox="0 0 20 11" style="enable-background:new 0 0 20 11;" xml:space="preserve">
<style type="text/css">
	.st0{fill:#FFFFFF;}
</style>
<path class="st0" d="M10,0C5.6,0,1.9,2.2,0,5.5C1.9,8.8,5.6,11,10,11s8.1-2.2,10-5.5C18.1,2.2,14.4,0,10,0z M10,2c1.1,0,2,0.9,2,2
	s-0.9,2-2,2S8,5.1,8,4S8.9,2,10,2z M10,9C6.9,9,4.1,7.7,2.4,5.5c1-1.2,2.3-2.2,3.8-2.8C6.1,3.1,6,3.5,6,4c0,2.2,1.8,4,4,4s4-1.8,4-4
	c0-0.5-0.1-0.9-0.2-1.3c1.5,0.6,2.9,1.5,3.8,2.8C15.9,7.7,13.1,9,10,9z"/>
</svg>
